<?xml version="1.0" encoding="UTF-8" standalone="no"?>
<!-- Created with Inkscape (http://www.inkscape.org/) -->

<svg
   width="128"
   height="128"
   viewBox="0 0 33.86666666666665 33.86666666666665"
   version="1.1"
   id="svg1"
   xmlns="http://www.w3.org/2000/svg"
   xmlns:svg="http://www.w3.org/2000/svg">
  <defs
     id="defs1" />
  <g
     id="layer1">
    <path
       id="icon"
       d="m 18.99160887752508,0 c -0.3063,0 -0.476,0.155377 -0.51010000000001,0.4656030000000001 L 9.496568877525072,33.2976 c -0.136129999999998,0.37909999999999 -0.03388,0.5689 0.306450000000002,0.5689 h 2.863635561237457 c 0.2382,0 0.3914,-0.15529999999999 0.4594,-0.4656 L 22.11055443876254,0.6206320000000005 C 22.21265443876254,0.206997 22.11035443876254,0 21.80405443876254,0 Z M 5.401740000000001,2.62102 C 3.53986,2.62102 2.16817,3.2647 1.28623,4.55216 C 0.42878,5.839620000000002 0.0736676,7.784950000000002 0.220658,10.3885 c 0,0.1716 0.024384,0.315 0.073381,0.4294 c 0.048997,0.1144 0.147048,0.1716 0.2940389999999999,0.1716 H 3.34398 c 0.24499,0 0.35523,-0.1714 0.33073,-0.5147 C 3.60122,9.10148 3.67488,8.07118 3.89537,7.38453 C 4.11586,6.697890000000001 4.58121,6.354630000000001 5.29167,6.354630000000001 C 5.87963,6.354630000000001 6.27184,6.5408 6.46782,6.91273 c 0.220490000000003,0.343320000000002 0.330730000000004,0.972720000000003 0.330730000000004,1.888249999999999 c 0,0.972750000000001 -0.122950000000002,1.83112 -0.367930000000001,2.57502 C 6.18563,12.1199 5.86761,12.8064 5.475640000000002,13.4358 C 5.10816,14.0366 4.728150000000002,14.6518 4.33617,15.2812 C 3.94419,15.882 3.62566,16.5542 3.380670000000001,17.2981 C 3.13569,18.042 3.01325,18.9004 3.01325,19.8731 v 1.7596 c 0,0.2861 0.07367,0.4289 0.22066,0.4289 h 3.23391 c 0.220490000000003,0 0.330730000000004,-0.1428 0.330730000000004,-0.4289 v -1.5022 c 0,-0.7153 0.122439999999997,-1.3732 0.367419999999997,-1.9741 C 7.435450000000002,17.527 7.75399,16.9119 8.12147,16.3111 C 8.513439999999999,15.6817 8.892939999999999,15.0094 9.260419999999999,14.2942 C 9.65239,13.5503 9.970929999999999,12.7062 10.2159,11.762 c 0.245,-0.9441 0.3674,-2.03154 0.3674,-3.26178 C 10.5833,6.554730000000001 10.1667,5.09599 9.3338,4.12325 C 8.525349999999999,3.12189 7.21462,2.62102 5.401740000000001,2.62102 Z M 28.6851,2.62102 c -1.8619,0 -3.2336,0.64368 -4.1155,1.93114 C 23.7121,5.839620000000002 23.357,7.784950000000002 23.504,10.3885 c 0,0.1716 0.0244,0.315 0.0734,0.4294 c 0.049,0.1144 0.147,0.1716 0.294,0.1716 h 2.7559 c 0.245,0 0.3552,-0.1714 0.3307,-0.5147 c -0.0734,-1.37332 2e-4,-2.40362 0.2207,-3.09027 C 27.3992,6.697890000000001 27.8645,6.354630000000001 28.575,6.354630000000001 C 29.163,6.354630000000001 29.5552,6.5408 29.7512,6.91273 c 0.2204,0.343320000000002 0.3307,0.972720000000003 0.3307,1.888249999999999 C 30.0819,9.77373 29.9589,10.6321 29.714,11.376 c -0.245,0.7439 -0.5631,1.4304 -0.955,2.0598 c -0.3675,0.6008 -0.7475,1.216 -1.1395,1.8454 c -0.392,0.6008 -0.7105,1.273 -0.9555,2.0169 c -0.245,0.7439 -0.3674,1.6023 -0.3674,2.575 v 1.7596 c 0,0.2861 0.0737,0.4289 0.2206,0.4289 h 3.23400000000001 C 29.9716,22.0616 30.0819,21.9188 30.0819,21.6327 v -1.5022 c 0,-0.7153 0.1224,-1.3732 0.3674,-1.9741 c 0.26950000000001,-0.6294 0.588,-1.2445 0.9555,-1.8453 c 0.392,-0.6294 0.77150000000001,-1.3017 1.13900000000001,-2.0169 c 0.3919,-0.74389999999999 0.7105,-1.588 0.9555,-2.53219999999999 c 0.2449,-0.94410000000001 0.3674,-2.031540000000005 0.3674,-3.261780000000005 C 33.8667,6.554730000000001 33.4501,5.09599 32.6171,4.12325 C 31.8087,3.12189 30.498,2.62102 28.6851,2.62102 Z M 4.99763,25.5808 c -0.75945,0 -1.33505,0.2147 -1.72703,0.6439 c -0.39197,0.4005 -0.58808,1.0299 -0.58808,1.8882 v 0.6434 c 0,0.8297 0.19611,1.4591 0.58808,1.8882 c 0.39198,0.4006 0.96758,0.601 1.72703,0.601 c 0.734950000000001,0 1.29836,-0.2004 1.690330000000002,-0.601 C 7.079940000000002,30.2154 7.27604,29.586 7.27604,28.7563 v -0.6434 c 0,-0.8583 -0.196099999999998,-1.4877 -0.588079999999998,-1.8882 C 6.29599,25.7955 5.73258,25.5808 4.99763,25.5808 Z M 28.281,25.5808 c -0.7595,0 -1.3351,0.2147 -1.7271,0.6439 c -0.3919,0.4005 -0.588,1.0299 -0.588,1.8882 v 0.6434 c 0,0.8297 0.1961,1.4591 0.588,1.8882 c 0.392,0.4006 0.9676,0.601 1.7271,0.601 c 0.7349,0 1.2983,-0.2004 1.6903,-0.601 c 0.392,-0.4291 0.5881,-1.0585 0.5881,-1.8882 v -0.6434 c 0,-0.8583 -0.1961,-1.4877 -0.5881,-1.8882 c -0.392,-0.4292 -0.9554,-0.6439 -1.6903,-0.6439 z"
       style="fill:currentColor" />
  </g>
</svg>
